<svg class="targetIcon" version="1.1" id="Layer_1" xmlns="http://www.w3.org/2000/svg" xmlns:xlink="http://www.w3.org/1999/xlink" x="0px" y="0px" viewBox="0 0 612 792" enable-background="new 0 0 612 792" xml:space="preserve">
    
    <style type="text/css">
        <![CDATA[
            .targetIcon .target1, .targetIcon .target2, .targetIcon .target3 {
                fill: #a22b38;
            }
            
            .targetIcon .target1, .targetIcon .target2, .targetIcon .target3 {
                -webkit-animation-duration: 1s;
                -webkit-animation-timing-function: linear;
                -webkit-animation-delay: 0s;
                -webkit-animation-iteration-count: infinite;
            }

            .targetIcon .target1 {
                -webkit-animation-name: targetOne;
            }

            .targetIcon .target2 {
                -webkit-animation-name: targetTwo;
            }

            .targetIcon .target3 {
                -webkit-animation-name: targetThree;
            }

            @-webkit-keyframes targetOne {
                0% {
                    opacity: .1;
                }
                50%, 100% {
                    opacity: 1;
                }
            }
            @-webkit-keyframes targetTwo {
                0%, 25% {
                    opacity: 0;
                }
                75%, 100% {
                    opacity: 1;
                }
            }
            @-webkit-keyframes targetThree {
                0%, 50% {
                    opacity: 0;
                }
                100% {
                    opacity: 1;
                }
            }
        ]]>
    </style>
    
     <path class="target3" d="M305.6,171.6c30.2,0,59.5,5.9,87.1,17.6c26.6,11.3,50.6,27.4,71.1,48c20.6,20.6,36.7,44.5,48,71.1
	c11.7,27.6,17.6,56.9,17.6,87.1s-5.9,59.5-17.6,87.1c-11.3,26.6-27.4,50.6-48,71.1c-20.6,20.6-44.5,36.7-71.1,48
	c-27.6,11.7-56.9,17.6-87.1,17.6s-59.5-5.9-87.1-17.6c-26.6-11.3-50.6-27.4-71.1-48c-20.6-20.6-36.7-44.5-48-71.1
	c-11.7-27.6-17.6-56.9-17.6-87.1s5.9-59.5,17.6-87.1c11.3-26.6,27.4-50.6,48-71.1s44.5-36.7,71.1-48
	C246.1,177.5,275.3,171.6,305.6,171.6 M305.6,136.6c-142.9,0-258.7,115.8-258.7,258.7S162.7,654,305.6,654s258.7-115.8,258.7-258.7
	S448.5,136.6,305.6,136.6L305.6,136.6z"></path>
    <path class="target2" d="M305.6,259.6c36.2,0,70.3,14.1,95.9,39.7c25.6,25.6,39.7,59.7,39.7,95.9s-14.1,70.3-39.7,95.9
	c-25.6,25.6-59.7,39.7-95.9,39.7s-70.3-14.1-95.9-39.7c-25.6-25.6-39.7-59.7-39.7-95.9s14.1-70.3,39.7-95.9
	C235.3,273.7,269.3,259.6,305.6,259.6 M305.6,224.6c-94.2,0-170.6,76.4-170.6,170.6s76.4,170.6,170.6,170.6s170.6-76.4,170.6-170.6
	S399.8,224.6,305.6,224.6L305.6,224.6z"></path>
    <circle class="target1" cx="305.6" cy="395.3" r="87.2"></circle>
  </svg>